<svg xmlns="http://www.w3.org/2000/svg" viewBox="0 0 64 64">
  <rect width="64" height="64" rx="14" fill="#0b1220"/>
  <path
    d="M47 18C37 8 18 12 18 26c0 9 9 12 18 12 7 0 12 2 12 8 0 8-13 9-24 4"
    fill="none"
    stroke="#22c55e"
    stroke-width="10"
    stroke-linecap="round"
    stroke-linejoin="round"
  />
  <path
    d="M47 18C37 8 18 12 18 26c0 9 9 12 18 12"
    fill="none"
    stroke="#86efac"
    stroke-width="4"
    stroke-linecap="round"
    stroke-linejoin="round"
    opacity="0.8"
  />
  <circle cx="49" cy="18" r="9" fill="#22c55e"/>
  <circle cx="46" cy="16" r="2" fill="#052e16"/>
  <circle cx="53" cy="17" r="2" fill="#052e16"/>
  <path d="M50 21c2 2 4 2 6 0" fill="none" stroke="#052e16" stroke-width="2" stroke-linecap="round"/>
  <circle cx="17" cy="49" r="7" fill="#ef4444"/>
  <path d="M17 40c1-4 4-6 8-7" fill="none" stroke="#65a30d" stroke-width="3" stroke-linecap="round"/>
  <path d="M23 35c4-1 7 0 8 3-4 1-7 0-8-3z" fill="#84cc16"/>
</svg>
