<svg xmlns="http://www.w3.org/2000/svg" viewBox="0 0 64 64" width="64" height="64">
  <defs>
    <radialGradient id="gg" cx="38%" cy="32%" r="50%">
      <stop offset="0%" stop-color="#c4b5fd"/>
      <stop offset="50%" stop-color="#a78bfa"/>
      <stop offset="90%" stop-color="#7c3aed"/>
      <stop offset="100%" stop-color="#5b21b6"/>
    </radialGradient>
    <radialGradient id="gg2" cx="35%" cy="30%" r="50%">
      <stop offset="0%" stop-color="#ddd6fe"/>
      <stop offset="50%" stop-color="#a78bfa"/>
      <stop offset="100%" stop-color="#6d28d9"/>
    </radialGradient>
  </defs>
  <!-- Stem -->
  <path d="M32 6 L32 18" stroke="#22c55e" stroke-width="2.5" stroke-linecap="round"/>
  <!-- Leaf -->
  <path d="M32 12 Q40 6 44 10 Q40 14 32 12Z" fill="#22c55e"/>
  <path d="M32 12 Q24 6 20 10 Q24 14 32 12Z" fill="#4ade80"/>
  <!-- Top grape -->
  <circle cx="32" cy="24" r="9" fill="url(#gg)"/>
  <ellipse cx="28" cy="20" rx="3" ry="2.5" fill="white" opacity="0.4"/>
  <circle cx="27" cy="19" r="1.5" fill="white" opacity="0.6"/>
  <!-- Left grape -->
  <circle cx="22" cy="36" r="9" fill="url(#gg2)"/>
  <ellipse cx="18" cy="32" rx="3" ry="2.5" fill="white" opacity="0.4"/>
  <circle cx="17" cy="31" r="1.5" fill="white" opacity="0.6"/>
  <!-- Right grape -->
  <circle cx="42" cy="36" r="9" fill="url(#gg)"/>
  <ellipse cx="38" cy="32" rx="3" ry="2.5" fill="white" opacity="0.4"/>
  <circle cx="37" cy="31" r="1.5" fill="white" opacity="0.6"/>
  <!-- Bottom-left grape -->
  <circle cx="27" cy="49" r="9" fill="url(#gg2)"/>
  <ellipse cx="23" cy="45" rx="3" ry="2.5" fill="white" opacity="0.4"/>
  <circle cx="22" cy="44" r="1.5" fill="white" opacity="0.6"/>
  <!-- Bottom-right grape -->
  <circle cx="38" cy="49" r="9" fill="url(#gg)"/>
  <ellipse cx="34" cy="45" rx="3" ry="2.5" fill="white" opacity="0.4"/>
  <circle cx="33" cy="44" r="1.5" fill="white" opacity="0.6"/>
</svg>
